<?xml version="1.0" encoding="UTF-8" standalone="no"?>
<svg xmlns="http://www.w3.org/2000/svg" xmlns:xlink="http://www.w3.org/1999/xlink" width="620" height="620" version="1.0" viewBox="0 0 62 62">
  <defs>
    <linearGradient id="a" x1="10.978114" x2="43.214401" y1="-12.038551" y2="52.787098" gradientUnits="userSpaceOnUse">
      <stop offset="0" stop-color="#f6f6ac"/>
      <stop offset="1" stop-color="#ffd200"/>
    </linearGradient>
    <linearGradient id="b" x1="54.509937" x2="9.5471001" y1="41.179295" y2="16.248501" gradientUnits="userSpaceOnUse">
      <stop offset="0" stop-color="#ac821c"/>
      <stop offset="1" stop-color="#e8a637"/>
    </linearGradient>
    <linearGradient xlink:href="#a" id="e" x1="10.978114" x2="43.214401" y1="-12.038551" y2="52.787098" gradientUnits="userSpaceOnUse"/>
    <linearGradient xlink:href="#b" id="f" x1="54.509937" x2="9.5471001" y1="41.179295" y2="16.248501" gradientUnits="userSpaceOnUse"/>
    <radialGradient id="c">
      <stop offset="0" stop-color="silver"/>
      <stop offset=".88" stop-color="silver"/>
      <stop offset="1" stop-color="silver" stop-opacity="0"/>
    </radialGradient>
    <radialGradient xlink:href="#c" id="d" cx="32.5" cy="29.5" r="26.5" fx="32.5" fy="29.5" gradientUnits="userSpaceOnUse"/>
  </defs>
  <circle cx="32.5" cy="29.5" r="26.5" fill="url(#d)" transform="matrix(1.0648 0 0 1.06482 -2.5078217 2.5138574)"/>
  <circle cx="31" cy="31" r="25.799999" fill="url(#e)" stroke="url(#f)" stroke-width="2" transform="translate(-.4078217 1.4274574)"/>
  <path fill="#fff" d="M30.212249 15.639241c-5.400564.169164-8.980651 2.766038-8.980651 8.122221v5.466877h-1.215467c-.89173 0-1.620572.6143-1.620572 1.383464v14.370084c0 .769269.728803 1.383451 1.620572 1.383451h21.99024c.891862 0 1.59807-.614169 1.59807-1.383451V30.611803c0-.76927-.706247-1.383464-1.59807-1.383464h-1.237889l.02254-5.377624c0-5.685703-3.886414-8.141288-9.768442-8.211474-.274247-.0033-.544645-.0084-.810267 0zm.540134 3.59253c.09951-.0022.212418 0 .315111 0 6.526235 0 6.025785 4.641606 6.12215 6.024723v3.971845H24.900312v-3.949541c-.02254-1.372119-.404269-5.905897 5.852071-6.047027z" color="#000" display="block" overflow="visible" style="marker:none"/>
</svg>